<svg id="Layer_1" data-name="Layer 1" xmlns="http://www.w3.org/2000/svg" viewBox="0 0 48.39 45.29"><defs><style>.cls-1{fill:#010101;}</style></defs><title>Vector Logo50x50 outlines</title><path class="cls-1" d="M13,9.88H15.3l0,8.43c0,1.82-.73,3.14-3,3.14-2.07,0-2.92-1-2.92-2.7v-.44h2.14v.27c0,.66,0,1.34.76,1.34s.72-.68.72-1.6Z" transform="translate(-0.96 -2.49)"/><path class="cls-1" d="M32.26,25.13l2.2,1v8h1.76v-8l2.2,1.12v13h-2.2V36H34.46V40.2h-2.2Z" transform="translate(-0.96 -2.49)"/><path class="cls-1" d="M22.57,41c0-4.47-3.34-5.93-10-7.81S1.12,28.76,1.12,20.62c0-6,4.47-11.69,12.77-11.69,5,0,7.76,1.67,9.59,1.67.92,0,1.19-.38,1.57-1.08h.59L26,20.41h-.86c-2.75-5-6.42-10.35-12-10.35-3.88,0-6.57,2.26-6.57,5.44,0,4,3.66,5.34,9.1,6.79,6,1.62,12.62,3.67,12.62,12.61,0,7.76-5.29,12.88-13.21,12.88-5.23,0-9.75-1.61-11.26-1.61-.87,0-1.19.59-1.62,1.61H1.5L1,35h.91c2.7,5.39,7.93,11.69,13.85,11.69C19,46.65,22.57,44.93,22.57,41Z" transform="translate(-0.96 -2.49)"/><path class="cls-1" d="M43.58,34.56c0-4.47-3.35-5.93-10-7.82S22.13,22.32,22.13,14.19c0-6,4.47-11.7,12.77-11.7,5,0,7.76,1.67,9.59,1.67.92,0,1.19-.38,1.56-1.08h.6L47,14h-.86c-2.75-5-6.41-10.35-12-10.35-3.88,0-6.58,2.27-6.58,5.45,0,4,3.67,5.33,9.11,6.79,6,1.61,12.61,3.66,12.61,12.61,0,7.76-5.28,12.88-13.2,12.88-5.23,0-9.76-1.62-11.27-1.62-.86,0-1.18.59-1.61,1.62H22.5L22,28.52h.92c2.69,5.39,7.92,11.7,13.85,11.7C40,40.22,43.58,38.49,43.58,34.56Z" transform="translate(-0.96 -2.49)"/></svg>